<?xml version="1.0" standalone="no"?>
<!DOCTYPE svg PUBLIC "-//W3C//DTD SVG 20010904//EN"
 "http://www.w3.org/TR/2001/REC-SVG-20010904/DTD/svg10.dtd">
<svg version="1.0" xmlns="http://www.w3.org/2000/svg"
 width="259.000000pt" height="259.000000pt" viewBox="0 0 259.000000 259.000000"
 preserveAspectRatio="xMidYMid meet">
<metadata>
Created by potrace 1.11, written by Peter Selinger 2001-2013
</metadata>
<g transform="translate(0.000000,259.000000) scale(0.100000,-0.100000)"
fill="#000000" stroke="none">
<path d="M1216 2575 c-3 -9 -2 -13 4 -10 6 3 10 1 10 -4 0 -6 -4 -11 -10 -11
-14 0 -12 -37 3 -44 6 -4 3 -5 -9 -2 -20 3 -21 2 -5 -28 20 -41 23 -60 7 -47
-8 7 -16 7 -24 1 -7 -6 -10 -7 -7 -4 3 4 -5 15 -17 25 -16 14 -24 16 -35 8
-15 -13 -18 -23 -4 -15 5 3 12 -1 15 -10 3 -8 2 -13 -3 -10 -5 3 -11 -3 -14
-14 -3 -11 0 -23 5 -27 7 -4 8 -1 3 7 -6 9 -4 11 4 5 9 -5 9 -11 3 -17 -7 -7
-6 -15 3 -25 8 -7 11 -21 8 -30 -5 -12 -3 -14 8 -8 11 7 12 6 2 -7 -7 -8 -9
-19 -5 -23 4 -5 1 -5 -6 -1 -7 4 -9 13 -5 19 4 7 -7 1 -24 -13 -17 -14 -29
-27 -27 -29 2 -2 11 2 21 10 12 10 11 5 -5 -17 -12 -17 -18 -35 -14 -39 4 -5
1 -5 -6 -1 -11 6 -11 11 0 24 12 15 11 16 -5 3 -9 -8 -15 -16 -13 -19 3 -2 -2
-11 -10 -20 -13 -12 -13 -16 -2 -23 10 -7 9 -9 -5 -9 -12 0 -16 -4 -11 -12 6
-10 5 -10 -7 -1 -12 10 -21 7 -44 -15 -16 -15 -30 -25 -30 -23 0 3 -9 -1 -20
-8 -16 -10 -16 -11 -2 -7 15 5 16 2 7 -14 -6 -10 -18 -24 -28 -29 -9 -6 -12
-11 -5 -11 7 0 10 -7 7 -15 -4 -8 -1 -15 6 -15 6 0 8 5 4 12 -4 7 -3 8 4 4 6
-4 9 -13 6 -21 -4 -8 -10 -13 -14 -10 -5 3 -12 0 -16 -6 -4 -8 -3 -9 4 -5 7 4
12 3 12 -2 0 -5 10 -12 22 -15 18 -5 19 -8 8 -21 -8 -11 -9 -16 -1 -16 6 0 11
-5 11 -11 0 -5 -4 -7 -10 -4 -9 6 -15 -8 -11 -29 1 -5 -5 -3 -14 4 -13 11 -14
10 -9 -5 5 -12 4 -16 -3 -12 -7 5 -9 0 -6 -12 3 -10 -1 -22 -8 -27 -9 -5 -10
-2 -6 10 4 9 3 15 -2 11 -15 -9 -8 -45 9 -46 8 0 5 -4 -9 -10 -16 -6 -21 -14
-17 -27 5 -14 3 -14 -9 2 -11 14 -15 16 -15 5 0 -9 -3 -10 -8 -3 -4 6 -18 17
-32 24 -23 12 -24 12 -11 -4 12 -14 12 -16 -3 -10 -9 3 -16 10 -16 15 0 13
-34 11 -50 -3 -12 -11 -12 -10 -1 5 12 16 8 22 -13 18 -4 -1 -16 4 -25 11 -14
12 -15 11 -2 -4 8 -11 9 -18 3 -18 -6 0 -13 4 -17 9 -6 10 -37 7 -57 -5 -6 -4
-8 -3 -4 4 3 6 1 14 -6 18 -7 4 -10 4 -6 -1 4 -4 3 -14 -3 -21 -8 -10 -16 -11
-31 -3 -11 6 -18 7 -15 2 3 -5 -3 -15 -15 -22 -15 -9 -18 -9 -13 0 5 7 3 10
-6 7 -8 -3 -13 -11 -12 -17 2 -6 -2 -12 -7 -12 -6 -1 -14 -2 -19 -3 -5 0 -13
-5 -18 -10 -5 -5 -3 -6 5 -2 17 10 15 0 -5 -23 -9 -11 -21 -17 -27 -14 -6 4
-5 0 2 -9 10 -13 10 -18 1 -24 -8 -5 -9 -3 -4 7 8 12 6 12 -8 0 -18 -14 -23
-26 -8 -16 6 3 15 -5 22 -17 11 -20 10 -21 -3 -11 -12 10 -15 10 -15 -2 0 -8
4 -15 9 -15 5 0 6 -4 3 -10 -3 -5 -1 -10 5 -10 7 0 21 -10 32 -22 11 -13 17
-18 14 -11 -4 6 -2 14 3 17 5 4 8 -5 6 -19 -2 -19 1 -23 10 -15 6 5 16 6 20 2
5 -4 5 -2 2 4 -7 12 21 29 31 19 3 -3 0 -5 -6 -5 -7 0 -12 -4 -12 -10 0 -5 6
-7 14 -4 8 3 17 0 21 -6 5 -8 13 -5 27 10 11 12 26 19 34 16 8 -3 14 0 14 6 0
7 4 7 14 -1 11 -9 16 -9 22 0 5 8 3 9 -6 4 -9 -5 -11 -4 -6 3 4 7 14 12 22 12
9 0 12 -5 8 -12 -5 -7 -3 -8 5 -4 7 5 10 15 6 24 -5 13 -1 12 15 -3 20 -19 21
-19 14 1 -7 17 -6 18 11 4 11 -9 16 -10 11 -2 -4 6 -2 12 3 12 6 0 11 -5 11
-11 0 -5 5 -7 10 -4 6 3 10 1 10 -5 0 -6 4 -9 9 -5 15 8 21 -9 9 -25 -8 -12
-9 -12 -4 3 3 10 2 15 -3 12 -6 -3 -9 -23 -9 -45 0 -27 4 -38 12 -33 6 4 4 -2
-4 -12 -8 -10 -10 -16 -3 -12 6 4 14 3 18 -3 4 -6 11 -8 16 -4 5 3 17 0 26 -8
15 -11 16 -11 9 6 -7 19 -6 19 13 2 17 -15 23 -16 36 -6 12 10 15 10 15 0 0
-8 3 -10 7 -7 3 4 13 1 21 -5 16 -14 72 -18 72 -6 0 4 5 8 11 8 5 0 8 -4 5 -9
-3 -5 0 -11 8 -14 8 -3 17 1 20 9 4 11 10 12 25 4 24 -12 34 -13 27 -1 -9 14
16 20 38 9 13 -7 16 -7 12 1 -4 6 -2 11 3 11 6 0 11 -8 12 -17 0 -15 2 -15 9
2 8 18 9 17 9 -7 1 -16 5 -28 10 -28 17 0 20 -29 5 -45 -9 -9 -11 -15 -4 -15
6 0 8 -5 5 -10 -4 -6 -10 -8 -15 -5 -11 7 -22 -24 -13 -37 3 -6 1 -8 -5 -4 -6
3 -14 2 -17 -4 -5 -8 -11 -8 -20 0 -10 8 -16 7 -24 -7 -7 -12 -10 -13 -11 -4
0 9 -8 12 -24 9 -18 -4 -23 -1 -18 10 3 9 1 13 -5 9 -16 -10 -44 3 -36 16 3 6
1 7 -6 3 -6 -4 -9 -11 -6 -16 3 -5 -3 -11 -12 -13 -17 -4 -17 -5 0 -6 21 -1
23 -21 1 -21 -9 0 -12 -5 -8 -12 5 -8 0 -7 -11 2 -11 9 -16 10 -11 3 4 -7 2
-14 -3 -14 -12 -2 -26 -5 -38 -9 -5 -1 -12 -2 -16 -1 -4 1 -10 -5 -13 -13 -3
-8 -14 -12 -27 -9 -16 4 -18 2 -8 -5 11 -8 10 -11 -6 -16 -20 -6 -28 -41 -12
-51 5 -4 6 2 2 12 -3 10 -3 15 1 12 4 -4 9 -19 12 -35 3 -22 2 -25 -6 -14 -8
13 -10 13 -10 -2 0 -9 -8 -22 -17 -28 -16 -10 -16 -11 -1 -6 9 2 19 -1 22 -9
3 -9 0 -12 -9 -9 -11 5 -12 0 -6 -23 4 -15 7 -36 5 -45 -1 -10 2 -20 6 -23 5
-3 7 4 5 15 -2 11 1 20 7 20 5 0 8 -6 5 -14 -3 -7 0 -19 6 -26 9 -10 9 -11 0
-6 -9 5 -13 -2 -13 -26 0 -25 3 -29 10 -18 6 9 10 10 10 3 0 -6 -5 -15 -11
-19 -6 -3 -9 -17 -6 -31 3 -18 1 -23 -11 -18 -12 4 -13 3 -2 -10 10 -12 10
-15 -1 -15 -10 0 -11 -2 -2 -8 7 -4 10 -16 8 -27 -2 -11 -4 -23 -4 -27 -1 -5
-6 -8 -12 -8 -6 0 -7 5 -2 13 11 18 13 38 2 31 -5 -3 -7 -9 -4 -14 3 -4 -2
-13 -10 -20 -8 -7 -12 -16 -9 -21 9 -16 -3 -10 -17 8 -12 15 -12 16 1 8 8 -4
12 -4 7 0 -10 12 -39 16 -32 5 3 -5 -3 -7 -12 -6 -9 2 -19 8 -21 14 -2 7 -12
12 -22 12 -11 0 -29 10 -41 23 -12 12 -19 16 -15 10 5 -9 2 -11 -9 -7 -9 4
-14 9 -11 11 9 9 -16 63 -27 56 -7 -4 -8 0 -3 12 5 15 4 16 -9 5 -13 -11 -14
-10 -9 4 4 10 1 16 -7 16 -7 0 -9 3 -6 7 4 3 1 13 -6 21 -11 13 -9 14 13 2 23
-12 24 -12 11 3 -12 15 -11 17 3 17 9 0 16 5 16 11 0 5 -5 7 -12 3 -7 -4 -8
-3 -4 5 6 9 12 9 24 -1 10 -7 14 -8 10 -4 -4 5 0 15 10 23 9 8 11 11 3 7 -10
-5 -12 -3 -7 5 6 9 11 9 24 -1 13 -11 14 -11 7 1 -6 11 -4 13 9 8 11 -5 15 -3
10 4 -4 7 -1 10 7 7 8 -3 20 2 27 11 8 9 11 11 8 4 -4 -6 -2 -14 4 -18 5 -3
10 1 10 10 0 9 4 14 8 11 13 -8 35 11 39 34 2 12 -1 19 -7 15 -5 -3 -9 5 -8
17 1 38 -1 48 -13 48 -8 0 -8 -4 0 -14 9 -11 9 -16 -1 -22 -7 -4 -10 -3 -5 1
4 5 -1 17 -10 28 -10 11 -12 17 -5 13 6 -4 12 -4 12 -1 0 9 -27 35 -37 35 -5
0 -8 16 -8 35 1 19 -2 35 -6 35 -5 0 -5 7 -2 17 5 12 3 14 -8 8 -11 -6 -11 -5
-2 5 13 14 6 43 -9 34 -6 -4 -5 4 2 16 8 15 8 20 1 16 -7 -4 -11 1 -11 13 0
12 -5 21 -11 21 -5 0 -7 -4 -4 -10 3 -6 -1 -7 -10 -3 -12 4 -13 8 -5 13 9 6 9
13 1 26 -8 14 -11 15 -11 4 0 -12 -3 -11 -11 3 -6 9 -14 15 -20 12 -5 -4 -9
-1 -9 6 0 10 -3 10 -12 1 -8 -8 -16 -8 -32 0 -19 10 -20 10 -7 -6 12 -14 12
-16 -3 -10 -10 4 -16 1 -16 -7 0 -11 -3 -11 -10 1 -6 10 -10 11 -10 3 0 -7 -5
-13 -11 -13 -5 0 -7 5 -3 12 5 7 3 8 -5 4 -7 -5 -10 -14 -8 -20 3 -7 -1 -13
-9 -13 -8 0 -14 7 -14 16 0 12 -3 11 -14 -4 -13 -17 -14 -17 -23 -1 -9 17 -11
17 -16 2 -5 -11 -3 -15 5 -10 6 4 8 3 4 -4 -3 -6 -15 -9 -26 -7 -11 2 -23 -1
-26 -7 -5 -7 -2 -8 6 -3 9 6 11 4 6 -4 -5 -7 -14 -10 -22 -7 -8 3 -14 1 -14
-4 0 -6 5 -10 11 -10 8 0 8 -5 -1 -15 -10 -12 -10 -18 -1 -29 10 -12 8 -17 -8
-26 -22 -11 -28 -30 -10 -30 5 0 7 5 3 12 -5 7 -3 8 6 3 10 -6 9 -11 -5 -22
-11 -7 -16 -13 -12 -13 5 0 2 -6 -5 -14 -7 -8 -17 -11 -23 -8 -5 3 -4 -2 4
-11 7 -9 18 -14 25 -10 7 4 7 1 -1 -7 -10 -11 -15 -11 -29 1 -16 13 -16 12 -5
-8 10 -20 9 -23 -5 -23 -14 0 -15 -2 -3 -17 8 -9 9 -14 3 -10 -7 4 -15 0 -18
-9 -4 -10 -13 -14 -24 -10 -14 5 -14 3 2 -9 17 -13 17 -15 3 -15 -11 0 -14 -5
-10 -18 6 -14 4 -15 -9 -4 -13 10 -18 10 -24 1 -4 -8 -3 -9 4 -5 7 4 12 1 12
-8 0 -9 -4 -16 -10 -16 -5 0 -10 -10 -10 -22 0 -19 -2 -20 -10 -8 -8 11 -10 0
-8 -38 1 -47 4 -52 22 -47 12 3 15 2 9 -1 -20 -9 -15 -27 5 -20 14 5 14 4 -2
-9 -17 -13 -15 -19 5 -17 3 1 6 -9 6 -21 0 -31 13 -58 25 -51 6 4 6 -2 -1 -14
-8 -16 -7 -21 5 -26 11 -4 13 -13 9 -27 -5 -15 -4 -19 4 -15 7 5 11 -2 11 -18
0 -14 5 -26 11 -26 8 0 7 -6 -2 -17 -8 -9 -9 -14 -3 -10 7 4 15 0 18 -9 3 -8
2 -13 -3 -10 -5 4 -7 -3 -4 -14 3 -11 9 -20 14 -20 5 0 9 -9 9 -21 0 -13 4
-18 13 -13 8 5 8 2 -2 -9 -10 -13 -10 -17 -1 -17 10 0 10 -3 0 -15 -11 -13
-10 -14 3 -9 12 4 14 1 10 -15 -3 -13 -1 -21 7 -21 7 0 10 -7 6 -15 -3 -8 2
-21 11 -30 8 -9 16 -27 17 -40 0 -14 8 -28 17 -30 9 -3 21 -17 28 -32 11 -25
11 -25 -6 -12 -16 13 -17 12 -4 -3 7 -10 20 -18 27 -18 8 0 14 -4 14 -10 0 -5
-8 -7 -18 -4 -14 5 -14 4 -2 -4 8 -6 17 -9 21 -6 4 2 13 -4 20 -13 10 -11 10
-14 2 -9 -9 5 -11 2 -7 -8 3 -9 10 -13 15 -10 5 3 9 0 9 -6 0 -6 4 -8 10 -5 6
3 7 -1 4 -9 -4 -11 0 -16 10 -16 9 0 16 -5 16 -11 0 -5 -5 -7 -12 -3 -7 4 -8
3 -4 -4 4 -6 13 -9 20 -6 8 3 17 -3 20 -14 4 -11 14 -26 24 -33 14 -11 15 -11
5 1 -7 8 -13 18 -13 24 0 5 6 1 14 -9 8 -11 12 -25 9 -32 -3 -7 2 -13 11 -13
10 0 13 6 10 18 -5 14 -4 14 4 2 8 -10 8 -18 1 -27 -8 -9 -5 -11 11 -8 19 4
20 2 8 -12 -9 -12 -9 -15 0 -9 6 4 12 2 12 -4 0 -17 48 -61 55 -50 3 6 12 10
18 10 7 0 6 -4 -3 -10 -10 -7 -11 -10 -2 -10 7 0 15 7 18 15 8 21 44 13 67
-16 11 -13 18 -17 14 -8 -4 13 -1 16 14 12 10 -3 19 -10 19 -16 0 -6 3 -7 6
-4 4 3 15 2 25 -3 12 -7 20 -6 25 2 5 7 3 8 -6 3 -8 -5 -11 -4 -6 3 4 7 14 6
33 -3 15 -8 30 -12 35 -9 4 3 8 0 8 -7 0 -8 4 -9 13 0 10 7 17 7 24 0 8 -8 17
-7 33 1 15 8 20 8 16 1 -4 -6 -3 -11 3 -11 5 0 13 5 17 11 4 8 9 7 15 -2 7
-12 10 -12 21 0 7 8 8 11 2 8 -7 -4 -14 2 -17 12 -3 15 -1 18 11 14 10 -4 13
-2 8 5 -5 8 2 12 19 12 14 0 24 4 21 8 -2 4 4 9 15 9 18 2 19 -1 8 -15 -7 -9
0 -5 15 10 15 16 33 28 41 28 8 0 17 4 20 10 3 6 -1 7 -9 4 -9 -3 -16 -2 -16
4 0 5 -8 9 -17 8 -12 -1 -18 7 -19 21 -1 12 3 20 8 17 5 -3 7 -12 4 -20 -3 -8
0 -11 10 -7 10 4 12 9 6 15 -13 13 -3 50 11 41 6 -4 7 -1 2 7 -6 10 -11 9 -21
-5 -12 -16 -13 -16 -12 1 2 14 10 19 35 20 18 0 33 -2 33 -6 0 -4 7 -7 15 -7
8 0 12 4 9 9 -3 4 0 8 5 8 6 0 11 -5 11 -11 0 -8 6 -7 17 2 9 8 14 9 10 2 -5
-7 0 -9 13 -6 11 3 17 10 13 16 -4 6 -1 7 6 3 20 -12 61 -14 54 -3 -4 6 0 8
11 4 11 -4 24 2 38 18 12 14 26 25 32 25 5 0 1 -7 -10 -15 -18 -14 -18 -14 4
-8 12 3 22 13 22 22 0 14 2 14 10 1 8 -13 10 -12 10 4 0 15 3 16 15 6 15 -12
16 -12 19 13 1 6 10 11 20 9 13 -3 17 1 13 12 -4 10 0 14 13 11 12 -2 17 1 14
9 -3 8 16 29 45 50 28 20 51 43 51 52 0 8 5 12 10 9 6 -3 10 -2 10 4 0 5 -6
12 -12 14 -8 3 -5 6 6 6 16 1 17 3 5 18 -13 15 -12 15 11 3 21 -10 23 -10 13
1 -18 18 -16 29 5 29 13 0 14 2 4 9 -8 4 -13 12 -12 17 3 15 22 34 33 34 6 0
2 -7 -9 -16 -18 -14 -18 -15 4 -4 12 6 22 16 22 23 0 7 4 6 10 -3 5 -8 10 -10
10 -4 0 11 27 13 45 3 6 -3 17 -5 25 -4 8 1 21 3 29 3 7 1 11 8 8 16 -5 11 0
13 24 6 21 -6 27 -5 23 2 -5 7 -1 9 9 5 10 -4 20 0 25 9 5 9 13 17 18 17 5 1
8 6 6 11 -2 5 3 4 11 -2 17 -15 28 -6 19 16 -5 15 -4 16 13 2 11 -9 16 -10 11
-2 -4 7 -2 12 4 12 6 0 9 4 6 9 -3 5 1 12 10 15 10 4 13 2 9 -7 -4 -6 3 0 15
16 12 15 27 24 33 20 7 -4 5 2 -3 12 -14 17 -14 18 10 5 20 -10 22 -10 13 0
-9 10 -8 16 3 27 8 8 11 20 7 26 -3 7 -3 9 2 5 4 -4 14 0 22 10 8 9 11 11 7 3
-5 -9 -3 -12 4 -7 9 5 9 13 0 29 -11 21 -10 21 8 7 10 -8 16 -11 12 -6 -11 13
11 48 25 39 7 -4 7 0 -2 10 -10 13 -10 17 -1 17 7 0 10 7 6 16 -4 10 -2 13 6
8 8 -5 9 -2 5 9 -8 21 -3 21 16 2 13 -12 15 8 16 159 2 142 -1 176 -13 189
-15 15 -11 57 5 57 5 0 9 9 9 19 0 23 -28 54 -41 46 -5 -4 -9 -1 -9 4 0 6 -6
10 -12 8 -7 -1 -12 4 -11 11 4 16 -14 16 -20 0 -6 -19 -17 -5 -19 25 -1 14 -6
23 -10 21 -4 -3 -5 -12 -2 -22 5 -14 4 -15 -5 -2 -6 8 -15 15 -21 15 -6 0 -15
7 -21 15 -9 13 -10 12 -5 -2 6 -20 -10 -25 -17 -5 -4 8 -6 7 -7 -3 0 -10 -6
-6 -16 10 l-15 25 7 -25 c6 -23 6 -23 -11 -6 -10 9 -24 15 -31 12 -9 -3 -11 0
-7 11 4 10 2 14 -4 10 -6 -4 -13 0 -17 8 -3 9 -12 12 -22 8 -13 -5 -15 -3 -9
7 5 8 4 11 -3 6 -6 -3 -16 2 -22 11 -11 17 -11 17 -6 1 3 -10 1 -18 -4 -18 -6
0 -10 5 -10 11 0 5 -6 7 -12 3 -8 -5 -7 0 2 11 9 11 10 16 3 11 -8 -4 -13 -2
-13 5 0 8 -4 8 -15 -1 -10 -9 -15 -9 -15 -1 0 6 -15 11 -34 11 -44 0 -71 32
-54 64 6 12 10 22 9 24 -2 2 1 7 5 10 4 4 4 2 0 -5 -3 -6 -2 -14 3 -17 11 -7
9 13 -3 33 -6 10 -5 12 3 7 8 -5 10 0 7 18 -3 18 1 27 13 31 10 3 18 11 18 18
0 6 2 17 3 22 5 22 -1 36 -12 29 -6 -4 -3 5 8 19 10 15 26 27 34 27 13 0 13 1
0 10 -10 6 -11 10 -2 10 8 0 6 6 -5 18 -10 10 -25 28 -33 40 -8 12 -22 25 -32
28 -10 3 -18 10 -18 17 0 8 3 8 12 -1 7 -7 16 -12 22 -12 5 0 1 6 -9 14 -11 8
-29 13 -42 11 -15 -1 -23 3 -23 13 0 11 -3 12 -13 4 -10 -8 -13 -6 -13 8 0 10
4 16 8 14 14 -9 9 2 -11 25 -11 12 -18 33 -16 46 1 14 -2 25 -6 25 -5 0 -9 7
-9 15 0 8 -6 15 -12 15 -9 0 -8 4 2 10 13 8 13 10 -2 10 -12 0 -15 5 -11 17 4
11 3 14 -5 9 -7 -4 -12 -2 -12 4 0 6 -5 8 -12 4 -7 -4 -8 -3 -4 5 4 6 12 9 17
6 5 -4 9 -1 9 4 0 6 -9 11 -21 11 -11 0 -17 5 -14 10 3 6 1 10 -4 10 -6 0 -10
3 -10 8 3 19 -2 33 -11 27 -5 -3 -10 1 -10 10 0 9 -4 13 -10 10 -5 -3 -10 1
-10 9 0 9 -7 16 -15 16 -8 0 -15 5 -15 10 0 6 -7 10 -16 10 -8 0 -12 4 -9 10
4 6 -1 7 -11 3 -14 -5 -16 -3 -11 12 6 15 5 16 -8 5 -11 -9 -15 -9 -15 -1 0 7
-5 9 -12 5 -8 -5 -9 -2 -4 11 5 15 4 16 -9 5 -11 -9 -15 -9 -15 -1 0 7 -4 9
-10 6 -5 -3 -10 1 -10 9 0 9 -5 16 -11 16 -5 0 -7 4 -4 10 3 6 -1 7 -9 4 -11
-4 -16 0 -16 11 0 9 -4 13 -10 10 -5 -3 -10 -1 -10 4 0 6 5 11 12 11 6 0 8 3
5 6 -4 4 -12 2 -20 -4 -13 -11 -15 -6 -19 45 -1 6 -8 8 -16 5 -11 -4 -14 -1
-9 11 3 9 -1 21 -10 29 -13 10 -17 10 -20 0 -3 -6 -9 -10 -14 -7 -5 4 -6 -2
-2 -11 4 -12 3 -15 -5 -10 -8 5 -9 1 -3 -16 6 -17 4 -26 -8 -35 -14 -11 -13
-12 7 -8 25 4 30 -10 6 -19 -9 -3 -12 -11 -8 -18 6 -10 5 -11 -8 -1 -8 7 -19
9 -24 5 -4 -4 -3 0 4 9 10 13 9 19 -5 30 -15 12 -16 12 -9 -1 4 -8 -2 -3 -14
13 -12 15 -27 24 -32 21 -7 -4 -8 -2 -4 5 4 6 13 8 19 4 7 -3 3 4 -8 18 -11
13 -20 25 -21 27 -1 2 -4 -4 -8 -13z m-198 -435 c-7 -11 -17 -20 -22 -20 -5 0
-1 9 9 20 10 11 20 20 22 20 2 0 -2 -9 -9 -20z m909 -279 c0 -11 -5 -18 -9
-15 -4 3 -5 11 -1 19 7 21 12 19 10 -4z m-930 -376 c0 -8 -4 -12 -9 -9 -5 3
-6 10 -3 15 9 13 12 11 12 -6z m33 1 c0 -3 -4 -8 -10 -11 -5 -3 -10 -1 -10 4
0 6 5 11 10 11 6 0 10 -2 10 -4z m-215 -376 c3 -5 -1 -10 -10 -10 -9 0 -13 5
-10 10 3 6 8 10 10 10 2 0 7 -4 10 -10z m-530 -248 c-3 -3 -11 0 -18 7 -9 10
-8 11 6 5 10 -3 15 -9 12 -12z m1680 -272 c3 -5 1 -10 -4 -10 -6 0 -11 5 -11
10 0 6 2 10 4 10 3 0 8 -4 11 -10z m-205 -165 c0 -2 -10 -9 -22 -15 -22 -11
-22 -10 -4 4 21 17 26 19 26 11z m-267 -186 c-8 -8 -13 -7 -18 2 -5 8 -4 10 3
5 7 -4 12 -2 12 5 0 7 3 9 7 6 4 -4 2 -12 -4 -18z"/>
<path d="M1190 2466 c0 -2 8 -10 18 -17 15 -13 16 -12 3 4 -13 16 -21 21 -21
13z"/>
<path d="M1795 2091 c-3 -5 -2 -12 3 -15 5 -3 9 1 9 9 0 17 -3 19 -12 6z"/>
<path d="M626 1582 c-3 -5 1 -9 9 -9 8 0 12 4 9 9 -3 4 -7 8 -9 8 -2 0 -6 -4
-9 -8z"/>
<path d="M950 1279 c0 -5 5 -7 10 -4 6 3 10 8 10 11 0 2 -4 4 -10 4 -5 0 -10
-5 -10 -11z"/>
<path d="M915 1270 c-3 -5 -1 -10 4 -10 6 0 11 5 11 10 0 6 -2 10 -4 10 -3 0
-8 -4 -11 -10z"/>
<path d="M1700 360 l-25 -21 28 12 c15 7 27 16 27 21 0 11 -1 10 -30 -12z"/>
<path d="M1260 80 c-9 -6 -10 -10 -3 -10 6 0 15 5 18 10 8 12 4 12 -15 0z"/>
</g>
</svg>
